<?xml version="1.0" encoding="UTF-8" standalone="no"?>
<svg width="391px" height="63px" viewBox="0 0 391 63" version="1.1" xmlns="http://www.w3.org/2000/svg" xmlns:xlink="http://www.w3.org/1999/xlink" xmlns:sketch="http://www.bohemiancoding.com/sketch/ns">
    <!-- Generator: Sketch 3.4.2 (15855) - http://www.bohemiancoding.com/sketch -->
    <title>Page 1 + Alonzo Clemons</title>
    <desc>Created with Sketch.</desc>
    <defs>
        <path id="path-1" d="M0,0.125845782 L79.9574942,0.125845782 L79.9574942,61.1621622 L0,61.1621622 L0,0.125845782 Z"></path>
        <filter x="-50%" y="-50%" width="200%" height="200%" filterUnits="objectBoundingBox" id="filter-3">
            <feOffset dx="0" dy="1" in="SourceAlpha" result="shadowOffsetOuter1"></feOffset>
            <feGaussianBlur stdDeviation="0" in="shadowOffsetOuter1" result="shadowBlurOuter1"></feGaussianBlur>
            <feColorMatrix values="0 0 0 0 1   0 0 0 0 1   0 0 0 0 1  0 0 0 0.7 0" in="shadowBlurOuter1" type="matrix" result="shadowMatrixOuter1"></feColorMatrix>
            <feMerge>
                <feMergeNode in="shadowMatrixOuter1"></feMergeNode>
                <feMergeNode in="SourceGraphic"></feMergeNode>
            </feMerge>
        </filter>
    </defs>
    <g id="Welcome" stroke="none" stroke-width="1" fill="none" fill-rule="evenodd" sketch:type="MSPage">
        <g id="Desktop-Copy-2" sketch:type="MSArtboardGroup" transform="translate(-313.000000, -43.000000)">
            <g id="Page-1-+-Alonzo-Clemons" sketch:type="MSLayerGroup" transform="translate(313.000000, 43.000000)">
                <g id="Page-1">
                    <mask id="mask-2" sketch:name="Clip 2" fill="white">
                        <use xlink:href="#path-1"></use>
                    </mask>
                    <g id="Clip-2"></g>
                    <path d="M0.779767981,10.2551895 C0.779767981,10.2551895 1.35201856,9.59111666 2.65132251,10.703156 C2.68232019,10.703156 4.47665893,12.2475932 4.38385151,15.5527594 C4.35285383,15.5837112 4.29104408,18.7962074 6.82765661,21.4528693 C6.79684455,21.4836357 9.24064965,23.7077144 11.6228306,23.1826465 C11.5918329,23.2135982 17.2840835,19.9391985 19.6660789,19.0434508 C19.7278886,19.0742172 24.9561021,16.6030805 27.4309049,16.8193722 C27.4000928,16.8193722 30.617355,16.2324008 33.3087703,18.0857996 C33.2777726,18.0548479 37.0210673,20.0009167 38.7844084,19.8155768 C38.7534107,19.8774803 41.7232483,19.6611886 41.9398608,19.5685187 C41.9398608,19.5685187 42.7441299,19.4141306 42.8989327,19.4141306 C42.8989327,19.4141306 44.167239,19.0434508 44.816891,19.3214606 C44.7858933,19.444897 45.590348,19.2905089 45.590348,19.2905089 C45.590348,19.2905089 45.1417169,17.6687849 45.2577262,17.1822677 C45.2577262,17.2054352 45.157123,15.3520363 45.590348,14.9581891 C45.5593503,14.9813565 45.93058,14.8886866 46.0001856,14.7728492 C46.0465893,14.7265142 46.092993,14.286332 46.2322042,14.1009921 C46.2786079,14.0778246 46.8818561,13.5681399 47.5315081,13.4986375 C47.5315081,13.4523025 47.6243155,13.6376424 47.9027378,13.1511252 C47.9259397,13.1047902 48.5291879,12.618273 49.2484455,12.5256031 C49.2484455,12.5024356 49.8284919,12.3170957 50.3853364,12.8499479 C50.3853364,12.8036129 50.9885847,13.0584552 51.267007,13.1742927 C51.2206032,13.1279577 51.8934571,13.47547 52.3574942,14.0546571 C52.3342923,14.0546571 52.7751276,14.286332 53.0767517,14.3558344 C53.1231555,14.3558344 53.8656148,14.4485044 54.1904408,14.6338443 C54.3064501,14.6801792 54.5616705,14.7265142 54.5616705,14.7265142 C54.5616705,14.7265142 56.255406,14.7496817 57.2066821,15.3983713 C57.2066821,15.3752038 61.2438051,15.0276915 62.7287239,15.9775584 C62.6591183,15.9312235 63.5407889,16.1397308 64.2368445,16.9042579 C64.2832483,16.9274253 65.3505336,17.2517701 66.0697912,18.2016371 C66.092993,18.2248045 67.392297,19.4063463 67.8563341,19.5685187 C67.9259397,19.6380212 68.2507657,19.4526813 68.3435731,19.5221837 C68.4363805,19.5916862 68.7380046,19.8001936 68.8540139,19.8465285 C68.9700232,19.8928635 69.6660789,20.1245384 69.7588863,20.1245384 C69.8516937,20.1245384 70.1765197,20.1013709 70.454942,19.9855334 C70.7333643,19.869696 70.8493735,19.823361 71.0349884,19.8465285 C71.2206032,19.869696 71.0581903,19.962366 71.2206032,19.869696 C71.3830162,19.7770261 71.5918329,19.6843561 71.7542459,19.5916862 C71.9166589,19.4990162 72.5199072,19.2673414 72.5199072,19.2673414 C72.5199072,19.2673414 72.7983295,19.1978389 72.8215313,19.105169 L72.8447332,19.012499 C72.8447332,19.012499 73.2855684,19.0356665 73.2855684,18.9198291 C73.2855684,18.8039917 73.4247796,18.6418193 73.4247796,18.6418193 C73.4247796,18.6418193 73.6103944,18.6418193 73.68,18.5954843 C73.7496056,18.5491493 73.842413,18.5028144 73.9120186,18.294307 C73.9120186,18.2711395 74.6312761,17.9931297 74.9329002,17.43711 C74.9096984,17.4139425 75.1417169,16.9505928 75.2809281,16.7652529 C75.3273318,16.672583 75.1649188,16.4409081 75.1649188,16.4409081 C75.1649188,16.4409081 75.2976334,15.6763811 75.2892807,15.2593664 C75.2809281,14.8423516 75.3505336,13.7534798 74.7472854,13.0352877 C74.7704872,12.9426178 74.1208353,12.0854208 74.0744316,11.9927509 C74.0280278,11.900081 70.5477494,10.9270466 70.1069142,8.07744581 C70.1069142,8.03111084 70.2229234,7.31291879 70.2229234,7.15074639 C70.2229234,6.98857399 70.1997216,6.94223902 70.130116,6.8032341 C70.0605104,6.66422919 69.8748956,5.69119479 70.130116,5.50585491 C70.130116,5.50585491 70.2229234,4.62549045 70.4781439,4.32431314 C70.5477494,4.30114565 71.7078422,1.77588971 71.7078422,1.77588971 L71.6846404,1.33570749 C71.6846404,1.33570749 71.6382367,0.77968783 71.7078422,0.663850401 C71.7774478,0.548012973 71.9398608,0.177333202 71.9398608,0.177333202 C71.9398608,0.177333202 72.3574942,0.061495774 72.4503016,0.177333202 C72.543109,0.293170631 73.0535499,0.270003145 73.2855684,1.56738234 C73.3319722,1.56738234 74.167239,2.123402 74.329652,2.21607194 C74.492065,2.30874188 75.0257077,2.7720916 75.0257077,2.7720916 C75.0257077,2.7720916 75.1185151,3.02693394 75.0489095,3.21227382 C74.9793039,3.39761371 74.7008817,3.67562354 74.6312761,3.76829348 C74.5616705,3.86096342 74.1440371,4.62549045 73.6567981,4.90350028 C73.68,4.97300274 73.4015777,4.83399782 73.355174,5.50585491 C73.3087703,6.17771199 73.2159629,6.22404696 73.355174,6.66422919 C73.4943852,7.10441142 73.6335963,7.42875622 73.9584223,7.70676604 C74.2832483,7.98477587 75.6985615,8.79563787 75.93058,8.95781027 C76.1625986,9.11998267 76.8586543,9.67600233 77.0210673,9.83817473 C77.1834803,10.0003471 78.4131787,10.950214 78.5059861,11.2282239 C78.5987935,11.5062337 79.480464,12.2012583 79.8284919,14.239997 C79.8516937,14.286332 80.1069142,15.9312235 79.8284919,16.9737603 C79.8284919,16.9737603 79.5732715,18.3869769 79.1788399,19.2210064 C79.2252436,19.2210064 79.2484455,19.962366 78.9932251,20.1708733 C78.9700232,20.2172083 78.5755916,20.4257157 78.5523898,20.5415531 C78.5291879,20.6573905 78.6219954,20.726893 78.4595824,20.9817353 C78.2971694,21.2365777 77.5315081,22.7656317 75.2577262,24.4336907 C75.2809281,24.4568582 74.9793039,24.6653656 74.9793039,24.6653656 C74.9793039,24.6653656 75.7681671,24.6653656 76.580232,24.827538 C76.6730394,24.8507054 77.0906729,25.0128778 77.0906729,25.2213852 C77.1138747,25.2677202 77.0906729,25.592065 76.8354524,25.6152325 C76.7890487,25.6384 75.7681671,25.6152325 75.7681671,25.6152325 C75.7681671,25.6152325 76.8818561,25.9010266 77.1138747,25.9627448 C77.1602784,25.978128 77.4851044,26.0554147 77.4696984,26.2253714 C77.4541067,26.2253714 77.8253364,26.7658225 77.4696984,26.9357791 C77.4232947,26.9511624 77.392297,27.2447407 76.1858005,27.3064589 C76.2322042,27.2910757 72.3188863,28.2331583 72.3188863,28.2331583 C72.3188863,28.2331583 71.282413,28.2794933 71.1896056,28.2331583 C71.0967981,28.1868234 70.942181,28.0941534 70.8803712,28.0941534 C70.8183759,28.0941534 70.4007425,28.2279688 70.307935,28.2537311 C70.2151276,28.2794933 69.302645,28.2537311 69.302645,28.2537311 C69.302645,28.2537311 69.6118794,28.5575031 69.6892807,28.6347899 C69.7666821,28.7118913 70.4007425,29.0518046 70.7719722,29.6078243 C70.7719722,29.5922557 71.607239,30.6425769 71.7464501,30.6889118 C71.8856613,30.7352468 71.9940603,30.8279167 72.0248724,31.0132566 C72.0558701,31.1985965 72.1950812,31.8009511 72.1332715,31.8936211 C72.0712761,31.986291 72.1176798,32.3569708 71.7774478,32.4033058 C71.4372158,32.4496407 71.3752204,32.6349806 71.0195824,32.5732624 C70.6637587,32.5113589 68.7302088,31.6156113 68.4363805,31.5383245 C68.1425522,31.4612231 67.6939211,31.5383245 67.4154988,31.5538931 C67.1370766,31.5692763 61.9862645,32.2952526 61.7078422,32.4342575 C61.6614385,32.4342575 60.7179582,32.7276506 60.1919258,32.7276506 C59.6660789,32.7276506 58.8462181,33.1137135 58.5213921,33.2836702 C58.1965661,33.4536269 58.1037587,33.4690101 58.1037587,33.4690101 C58.1037587,33.4690101 58.1965661,34.7200543 57.3612993,35.3996957 C57.3304872,35.4304621 56.4952204,36.2337252 55.5515545,36.2800601 C55.3659397,36.3263951 54.8554988,36.4654 54.7162877,36.2181566 C54.7162877,36.2181566 53.98942,37.2684778 53.68,37.4847694 C53.37058,37.7008757 53.0921578,37.8244974 52.9529466,38.0715555 C52.8137355,38.3187989 52.3496984,38.7202451 52.2104872,39.6469445 C52.0712761,40.5736439 51.8084455,41.2379021 51.6692343,41.4540084 C51.5300232,41.6703 51.2051972,42.010028 51.1432019,42.2263197 C51.0813921,42.4426113 51.1123898,42.4116596 51.1432019,42.6587176 C51.1741995,42.905961 51.6536427,43.8170919 51.7620418,44.1260535 C51.8702552,44.4350151 52.36529,45.0218012 52.4425058,45.1300397 C52.5199072,45.2380928 53.014942,45.6860593 53.2159629,45.9021656 C53.4169838,46.1184573 53.8656148,46.7825301 53.8966125,46.9524868 C53.9274246,47.1224434 54.0822274,47.5085064 54.2214385,47.9409044 C54.3606497,48.3734877 54.5616705,49.1765654 54.9329002,49.4545752 C55.3041299,49.732585 55.8145708,50.3658914 56.2632019,50.4276096 C56.7116473,50.4893278 57.1138747,50.5975663 57.3304872,50.6592845 C57.5469142,50.7210027 57.8099304,50.7673376 57.9337355,50.9219111 C58.057355,51.0762992 58.1657541,51.2462559 58.2739675,51.4779307 C58.382181,51.7096056 58.9236195,51.8176588 59.0628306,51.9566637 C59.2020418,52.0956686 59.3876566,52.3890616 59.3876566,52.3890616 C59.3876566,52.3890616 59.6506729,52.9450813 59.0628306,53.5166695 C58.4749884,54.0880724 58.5677958,54.1497905 58.2429698,54.4433689 C57.9181439,54.7367619 57.5779118,54.9221018 57.4232947,54.9221018 L57.1912761,54.9221018 C57.1912761,54.9221018 55.6599536,55.8641845 54.329652,55.8641845 C52.9993503,55.8641845 52.8911369,55.6634614 52.7673318,55.3544998 C52.6437123,55.0457235 51.2516009,52.5899701 50.7255684,52.1573868 C50.1997216,51.7249888 49.7820882,50.8446244 49.7356845,50.7210027 C49.6892807,50.5975663 48.6374014,49.2075171 48.4673782,48.9448905 C48.2971694,48.6822639 46.7194432,47.2922148 46.6576334,46.96787 C46.5956381,46.6435252 46.2864037,46.2574622 46.2864037,46.2574622 C46.2864037,46.2574622 46.1780046,46.1801755 46.0233875,46.2574622 C45.8687703,46.3347489 45.6831555,46.3964671 45.4201392,46.6744769 C45.157123,46.9524868 44.8632947,47.3848847 44.6002784,47.6784631 C44.3374478,47.9718561 43.3783759,50.211318 42.9607425,50.9063425 C42.543109,51.6013671 42.0016705,52.7906932 41.8316473,53.1613729 C41.6614385,53.5320527 41.104594,54.5514221 40.9035731,54.9221018 C40.7023666,55.2927816 40.4859397,55.3544998 40.5477494,56.2040978 C40.6095592,57.0535105 40.9189791,57.6404819 41.1664037,57.7948701 C41.4140139,57.9492582 41.8160557,58.273603 41.8470534,58.4745114 C41.878051,58.6752345 42.0326682,58.6752345 42.094478,58.9532443 C42.1564733,59.2312542 42.3110905,59.6019339 42.2492807,59.7409389 C42.1872854,59.8799438 42.1100696,59.9572305 41.8316473,60.0189487 C41.5532251,60.0806669 41.104594,60.3432935 41.0117865,60.4513466 C40.9189791,60.5595851 40.5167517,61.177323 39.7278886,61.1619398 C38.9390255,61.1463712 38.382181,61.0383181 37.717123,60.9919831 C37.052065,60.9456481 35.9073782,60.9146963 35.3969374,60.8683614 C34.8864965,60.8220264 34.5152668,60.6059201 34.1440371,60.2660067 C33.7728074,59.9262787 33.5717865,59.8799438 33.6181903,59.4783122 C33.664594,59.076866 34.0822274,54.5668053 34.9483063,53.3776646 C34.9638979,53.3467128 35.8455684,51.9103287 36.5570302,51.3389258 C36.5260325,51.3079741 37.8563341,49.5781969 37.7789327,48.8522206 C37.7945244,49.0066087 38.1657541,45.0218012 37.5315081,44.2650584 C36.8972622,43.5083157 36.0465893,43.5390821 35.7681671,43.5390821 C35.4897448,43.5390821 33.695406,43.6163688 33.695406,43.6163688 C33.695406,43.6163688 29.9212993,44.3113934 28.8540139,44.4040633 C27.7867285,44.4967333 27.4000928,44.5121165 27.0906729,44.4967333 C26.7812529,44.4813501 26.3946172,44.4350151 26.3946172,44.4350151 C26.3946172,44.4350151 26.0851972,44.8674131 25.8067749,45.1917579 C25.5283527,45.5161027 25.1417169,45.7631607 25.0025058,46.0721223 C24.8632947,46.3810839 24.8014849,46.6435252 24.8014849,46.6435252 C24.8014849,46.6435252 24.8942923,48.4042541 25.3273318,48.9758423 C25.7603712,49.5472452 25.8531787,50.1342166 26.0543852,50.5202796 C26.255406,50.9063425 26.1161949,51.0762992 26.4874246,51.2462559 C26.8586543,51.4160272 27.4154988,51.9257119 27.570116,52.1729553 C27.7249188,52.4200134 28.3125754,52.976033 28.3125754,52.976033 C28.3125754,52.976033 28.6683991,53.115038 28.7612065,53.2540429 C28.8540139,53.3930478 29.1014385,53.7637276 29.1014385,53.8563975 C29.1014385,53.9490674 29.4726682,54.937485 29.2562413,55.3391166 C29.0396288,55.7407481 29.0860325,55.6634614 28.7922042,55.8641845 C28.4981903,56.0650929 27.8021346,56.4357727 27.6011137,56.4357727 C27.4000928,56.4357727 27.5393039,56.265816 27.0288631,56.3894377 C26.5184223,56.5128741 26.1471926,56.7291657 25.7295592,56.698214 C25.3119258,56.6674475 24.0744316,56.6828307 23.3319722,56.5128741 C22.5895128,56.3431027 21.9244548,56.219481 21.7232483,55.926088 C21.5222274,55.6325096 20.0991183,53.7946793 19.8670998,52.2810085 C19.6350812,50.7673376 19.3258469,50.7673376 19.2794432,50.5975663 L19.2330394,50.4276096 C19.2330394,50.4276096 19.140232,50.3503229 18.707007,50.7365712 C18.2739675,51.1226342 17.7635267,51.2925909 17.2530858,51.6169357 C16.742645,51.9412805 16.092993,52.4046302 15.8609745,52.6207365 C15.6289559,52.8370281 15.319536,53.2230911 15.3041299,53.362096 C15.2887239,53.5011009 14.3142459,54.6131402 14.2522506,55.2001117 C14.1904408,55.7870831 14.2678422,55.7715145 14.3606497,55.9878062 C14.4534571,56.2040978 14.5926682,56.8372189 14.654478,56.9454574 C14.7162877,57.0535105 14.8554988,58.1965016 14.7782831,58.2428366 C14.7008817,58.2891715 14.7162877,58.3662729 13.8966125,58.3355065 C13.0767517,58.3045547 12.2878886,58.1655498 11.8702552,57.9648267 C11.4526218,57.7639183 8.6838051,56.1268111 8.6838051,56.1268111 C8.6838051,56.1268111 6.95146172,54.7830969 6.95146172,54.1961255 C6.95146172,53.6093394 7.12167053,53.4703345 7.30728538,53.2230911 C7.49290023,52.976033 8.32816705,50.8446244 8.94682135,50.3039879 C9.56547564,49.7635368 10.6483527,48.4505891 10.8339675,48.1262443 C11.0195824,47.8018995 12.5353132,47.1224434 14.2678422,46.2111272 C14.2986543,46.2111272 16.9900696,44.1877717 17.1138747,42.8903925 C17.0984687,42.905961 17.5933179,41.6703 17.2220882,41.2996203 C16.8508585,40.9289405 15.4587471,38.565857 15.1803248,37.8554492 C14.9019026,37.1448561 14.6234803,35.8630454 14.6234803,35.8630454 C14.6234803,35.8630454 13.339768,30.0865572 13.339768,29.4224844 C13.339768,28.7582262 13.0767517,27.8315268 12.8447332,27.4917988 C12.6127146,27.1520708 11.4990255,26.4724294 10.617355,26.2870895 C9.73568445,26.1017497 9.17883991,25.9010266 8.74580046,25.7156867 C8.31257541,25.5303468 6.62663573,24.8507054 6.33280742,24.5573124 C6.0387935,24.263734 3.42477958,22.5802918 2.77512761,19.9855334 C2.77512761,20.0009167 2.20287703,17.1281484 2.24928074,16.4486924 C2.29568445,15.7690511 2.17187935,14.7806334 2.14088167,14.4407201 C2.11006961,14.1009921 2.29568445,13.4369193 1.76965197,12.7109429 C1.2438051,11.9849666 0.934385151,11.6915736 0.640556845,11.5216169 C0.346728538,11.3518456 0.191925754,11.3672288 0.176519722,11.3055106 C0.161113689,11.2436071 -0.0709048724,11.1509371 0.0219025522,10.8729273 C0.114709977,10.5949175 0.501345708,10.2551895 0.640556845,10.2551895 L0.779767981,10.2551895 Z" id="Fill-1" fill="#075F89" sketch:type="MSShapeGroup" mask="url(#mask-2)"></path>
                </g>
                <text id="Alonzo-Clemons" fill="white" filter="url(#filter-3)" sketch:type="MSTextLayer" font-family="Lato" font-size="36" font-weight="bold" letter-spacing="5">
                    <tspan x="67" y="61" fill="#383838">Alonzo Clemons</tspan>
                </text>
            </g>
        </g>
    </g>
</svg>