<?xml version="1.0" encoding="UTF-8" standalone="no"?>
<svg width="327px" height="62px" viewBox="0 0 327 62" version="1.1" xmlns="http://www.w3.org/2000/svg" xmlns:xlink="http://www.w3.org/1999/xlink">
    <!-- Generator: Sketch 42 (36781) - http://www.bohemiancoding.com/sketch -->
    <title>logo</title>
    <desc>Created with Sketch.</desc>
    <defs>
        <polygon id="path-1" points="0 0.125845782 79.9574942 0.125845782 79.9574942 61.1621622 0 61.1621622"></polygon>
    </defs>
    <g id="Page-1" stroke="none" stroke-width="1" fill="none" fill-rule="evenodd">
        <g id="logo">
            <g id="Fill-1-Clipped">
                <mask id="mask-2" fill="white">
                    <use xlink:href="#path-1"></use>
                </mask>
                <g id="path-1"></g>
                <path d="M0.779767981,10.2551895 C0.779767981,10.2551895 1.35201856,9.59111666 2.65132251,10.703156 C2.68232019,10.703156 4.47665893,12.2475932 4.38385151,15.5527594 C4.35285383,15.5837112 4.29104408,18.7962074 6.82765661,21.4528693 C6.79684455,21.4836357 9.24064965,23.7077144 11.6228306,23.1826465 C11.5918329,23.2135982 17.2840835,19.9391985 19.6660789,19.0434508 C19.7278886,19.0742172 24.9561021,16.6030805 27.4309049,16.8193722 C27.4000928,16.8193722 30.617355,16.2324008 33.3087703,18.0857996 C33.2777726,18.0548479 37.0210673,20.0009167 38.7844084,19.8155768 C38.7534107,19.8774803 41.7232483,19.6611886 41.9398608,19.5685187 C41.9398608,19.5685187 42.7441299,19.4141306 42.8989327,19.4141306 C42.8989327,19.4141306 44.167239,19.0434508 44.816891,19.3214606 C44.7858933,19.444897 45.590348,19.2905089 45.590348,19.2905089 C45.590348,19.2905089 45.1417169,17.6687849 45.2577262,17.1822677 C45.2577262,17.2054352 45.157123,15.3520363 45.590348,14.9581891 C45.5593503,14.9813565 45.93058,14.8886866 46.0001856,14.7728492 C46.0465893,14.7265142 46.092993,14.286332 46.2322042,14.1009921 C46.2786079,14.0778246 46.8818561,13.5681399 47.5315081,13.4986375 C47.5315081,13.4523025 47.6243155,13.6376424 47.9027378,13.1511252 C47.9259397,13.1047902 48.5291879,12.618273 49.2484455,12.5256031 C49.2484455,12.5024356 49.8284919,12.3170957 50.3853364,12.8499479 C50.3853364,12.8036129 50.9885847,13.0584552 51.267007,13.1742927 C51.2206032,13.1279577 51.8934571,13.47547 52.3574942,14.0546571 C52.3342923,14.0546571 52.7751276,14.286332 53.0767517,14.3558344 C53.1231555,14.3558344 53.8656148,14.4485044 54.1904408,14.6338443 C54.3064501,14.6801792 54.5616705,14.7265142 54.5616705,14.7265142 C54.5616705,14.7265142 56.255406,14.7496817 57.2066821,15.3983713 C57.2066821,15.3752038 61.2438051,15.0276915 62.7287239,15.9775584 C62.6591183,15.9312235 63.5407889,16.1397308 64.2368445,16.9042579 C64.2832483,16.9274253 65.3505336,17.2517701 66.0697912,18.2016371 C66.092993,18.2248045 67.392297,19.4063463 67.8563341,19.5685187 C67.9259397,19.6380212 68.2507657,19.4526813 68.3435731,19.5221837 C68.4363805,19.5916862 68.7380046,19.8001936 68.8540139,19.8465285 C68.9700232,19.8928635 69.6660789,20.1245384 69.7588863,20.1245384 C69.8516937,20.1245384 70.1765197,20.1013709 70.454942,19.9855334 C70.7333643,19.869696 70.8493735,19.823361 71.0349884,19.8465285 C71.2206032,19.869696 71.0581903,19.962366 71.2206032,19.869696 C71.3830162,19.7770261 71.5918329,19.6843561 71.7542459,19.5916862 C71.9166589,19.4990162 72.5199072,19.2673414 72.5199072,19.2673414 C72.5199072,19.2673414 72.7983295,19.1978389 72.8215313,19.105169 L72.8447332,19.012499 C72.8447332,19.012499 73.2855684,19.0356665 73.2855684,18.9198291 C73.2855684,18.8039917 73.4247796,18.6418193 73.4247796,18.6418193 C73.4247796,18.6418193 73.6103944,18.6418193 73.68,18.5954843 C73.7496056,18.5491493 73.842413,18.5028144 73.9120186,18.294307 C73.9120186,18.2711395 74.6312761,17.9931297 74.9329002,17.43711 C74.9096984,17.4139425 75.1417169,16.9505928 75.2809281,16.7652529 C75.3273318,16.672583 75.1649188,16.4409081 75.1649188,16.4409081 C75.1649188,16.4409081 75.2976334,15.6763811 75.2892807,15.2593664 C75.2809281,14.8423516 75.3505336,13.7534798 74.7472854,13.0352877 C74.7704872,12.9426178 74.1208353,12.0854208 74.0744316,11.9927509 C74.0280278,11.900081 70.5477494,10.9270466 70.1069142,8.07744581 C70.1069142,8.03111084 70.2229234,7.31291879 70.2229234,7.15074639 C70.2229234,6.98857399 70.1997216,6.94223902 70.130116,6.8032341 C70.0605104,6.66422919 69.8748956,5.69119479 70.130116,5.50585491 C70.130116,5.50585491 70.2229234,4.62549045 70.4781439,4.32431314 C70.5477494,4.30114565 71.7078422,1.77588971 71.7078422,1.77588971 L71.6846404,1.33570749 C71.6846404,1.33570749 71.6382367,0.77968783 71.7078422,0.663850401 C71.7774478,0.548012973 71.9398608,0.177333202 71.9398608,0.177333202 C71.9398608,0.177333202 72.3574942,0.061495774 72.4503016,0.177333202 C72.543109,0.293170631 73.0535499,0.270003145 73.2855684,1.56738234 C73.3319722,1.56738234 74.167239,2.123402 74.329652,2.21607194 C74.492065,2.30874188 75.0257077,2.7720916 75.0257077,2.7720916 C75.0257077,2.7720916 75.1185151,3.02693394 75.0489095,3.21227382 C74.9793039,3.39761371 74.7008817,3.67562354 74.6312761,3.76829348 C74.5616705,3.86096342 74.1440371,4.62549045 73.6567981,4.90350028 C73.68,4.97300274 73.4015777,4.83399782 73.355174,5.50585491 C73.3087703,6.17771199 73.2159629,6.22404696 73.355174,6.66422919 C73.4943852,7.10441142 73.6335963,7.42875622 73.9584223,7.70676604 C74.2832483,7.98477587 75.6985615,8.79563787 75.93058,8.95781027 C76.1625986,9.11998267 76.8586543,9.67600233 77.0210673,9.83817473 C77.1834803,10.0003471 78.4131787,10.950214 78.5059861,11.2282239 C78.5987935,11.5062337 79.480464,12.2012583 79.8284919,14.239997 C79.8516937,14.286332 80.1069142,15.9312235 79.8284919,16.9737603 C79.8284919,16.9737603 79.5732715,18.3869769 79.1788399,19.2210064 C79.2252436,19.2210064 79.2484455,19.962366 78.9932251,20.1708733 C78.9700232,20.2172083 78.5755916,20.4257157 78.5523898,20.5415531 C78.5291879,20.6573905 78.6219954,20.726893 78.4595824,20.9817353 C78.2971694,21.2365777 77.5315081,22.7656317 75.2577262,24.4336907 C75.2809281,24.4568582 74.9793039,24.6653656 74.9793039,24.6653656 C74.9793039,24.6653656 75.7681671,24.6653656 76.580232,24.827538 C76.6730394,24.8507054 77.0906729,25.0128778 77.0906729,25.2213852 C77.1138747,25.2677202 77.0906729,25.592065 76.8354524,25.6152325 C76.7890487,25.6384 75.7681671,25.6152325 75.7681671,25.6152325 C75.7681671,25.6152325 76.8818561,25.9010266 77.1138747,25.9627448 C77.1602784,25.978128 77.4851044,26.0554147 77.4696984,26.2253714 C77.4541067,26.2253714 77.8253364,26.7658225 77.4696984,26.9357791 C77.4232947,26.9511624 77.392297,27.2447407 76.1858005,27.3064589 C76.2322042,27.2910757 72.3188863,28.2331583 72.3188863,28.2331583 C72.3188863,28.2331583 71.282413,28.2794933 71.1896056,28.2331583 C71.0967981,28.1868234 70.942181,28.0941534 70.8803712,28.0941534 C70.8183759,28.0941534 70.4007425,28.2279688 70.307935,28.2537311 C70.2151276,28.2794933 69.302645,28.2537311 69.302645,28.2537311 C69.302645,28.2537311 69.6118794,28.5575031 69.6892807,28.6347899 C69.7666821,28.7118913 70.4007425,29.0518046 70.7719722,29.6078243 C70.7719722,29.5922557 71.607239,30.6425769 71.7464501,30.6889118 C71.8856613,30.7352468 71.9940603,30.8279167 72.0248724,31.0132566 C72.0558701,31.1985965 72.1950812,31.8009511 72.1332715,31.8936211 C72.0712761,31.986291 72.1176798,32.3569708 71.7774478,32.4033058 C71.4372158,32.4496407 71.3752204,32.6349806 71.0195824,32.5732624 C70.6637587,32.5113589 68.7302088,31.6156113 68.4363805,31.5383245 C68.1425522,31.4612231 67.6939211,31.5383245 67.4154988,31.5538931 C67.1370766,31.5692763 61.9862645,32.2952526 61.7078422,32.4342575 C61.6614385,32.4342575 60.7179582,32.7276506 60.1919258,32.7276506 C59.6660789,32.7276506 58.8462181,33.1137135 58.5213921,33.2836702 C58.1965661,33.4536269 58.1037587,33.4690101 58.1037587,33.4690101 C58.1037587,33.4690101 58.1965661,34.7200543 57.3612993,35.3996957 C57.3304872,35.4304621 56.4952204,36.2337252 55.5515545,36.2800601 C55.3659397,36.3263951 54.8554988,36.4654 54.7162877,36.2181566 C54.7162877,36.2181566 53.98942,37.2684778 53.68,37.4847694 C53.37058,37.7008757 53.0921578,37.8244974 52.9529466,38.0715555 C52.8137355,38.3187989 52.3496984,38.7202451 52.2104872,39.6469445 C52.0712761,40.5736439 51.8084455,41.2379021 51.6692343,41.4540084 C51.5300232,41.6703 51.2051972,42.010028 51.1432019,42.2263197 C51.0813921,42.4426113 51.1123898,42.4116596 51.1432019,42.6587176 C51.1741995,42.905961 51.6536427,43.8170919 51.7620418,44.1260535 C51.8702552,44.4350151 52.36529,45.0218012 52.4425058,45.1300397 C52.5199072,45.2380928 53.014942,45.6860593 53.2159629,45.9021656 C53.4169838,46.1184573 53.8656148,46.7825301 53.8966125,46.9524868 C53.9274246,47.1224434 54.0822274,47.5085064 54.2214385,47.9409044 C54.3606497,48.3734877 54.5616705,49.1765654 54.9329002,49.4545752 C55.3041299,49.732585 55.8145708,50.3658914 56.2632019,50.4276096 C56.7116473,50.4893278 57.1138747,50.5975663 57.3304872,50.6592845 C57.5469142,50.7210027 57.8099304,50.7673376 57.9337355,50.9219111 C58.057355,51.0762992 58.1657541,51.2462559 58.2739675,51.4779307 C58.382181,51.7096056 58.9236195,51.8176588 59.0628306,51.9566637 C59.2020418,52.0956686 59.3876566,52.3890616 59.3876566,52.3890616 C59.3876566,52.3890616 59.6506729,52.9450813 59.0628306,53.5166695 C58.4749884,54.0880724 58.5677958,54.1497905 58.2429698,54.4433689 C57.9181439,54.7367619 57.5779118,54.9221018 57.4232947,54.9221018 L57.1912761,54.9221018 C57.1912761,54.9221018 55.6599536,55.8641845 54.329652,55.8641845 C52.9993503,55.8641845 52.8911369,55.6634614 52.7673318,55.3544998 C52.6437123,55.0457235 51.2516009,52.5899701 50.7255684,52.1573868 C50.1997216,51.7249888 49.7820882,50.8446244 49.7356845,50.7210027 C49.6892807,50.5975663 48.6374014,49.2075171 48.4673782,48.9448905 C48.2971694,48.6822639 46.7194432,47.2922148 46.6576334,46.96787 C46.5956381,46.6435252 46.2864037,46.2574622 46.2864037,46.2574622 C46.2864037,46.2574622 46.1780046,46.1801755 46.0233875,46.2574622 C45.8687703,46.3347489 45.6831555,46.3964671 45.4201392,46.6744769 C45.157123,46.9524868 44.8632947,47.3848847 44.6002784,47.6784631 C44.3374478,47.9718561 43.3783759,50.211318 42.9607425,50.9063425 C42.543109,51.6013671 42.0016705,52.7906932 41.8316473,53.1613729 C41.6614385,53.5320527 41.104594,54.5514221 40.9035731,54.9221018 C40.7023666,55.2927816 40.4859397,55.3544998 40.5477494,56.2040978 C40.6095592,57.0535105 40.9189791,57.6404819 41.1664037,57.7948701 C41.4140139,57.9492582 41.8160557,58.273603 41.8470534,58.4745114 C41.878051,58.6752345 42.0326682,58.6752345 42.094478,58.9532443 C42.1564733,59.2312542 42.3110905,59.6019339 42.2492807,59.7409389 C42.1872854,59.8799438 42.1100696,59.9572305 41.8316473,60.0189487 C41.5532251,60.0806669 41.104594,60.3432935 41.0117865,60.4513466 C40.9189791,60.5595851 40.5167517,61.177323 39.7278886,61.1619398 C38.9390255,61.1463712 38.382181,61.0383181 37.717123,60.9919831 C37.052065,60.9456481 35.9073782,60.9146963 35.3969374,60.8683614 C34.8864965,60.8220264 34.5152668,60.6059201 34.1440371,60.2660067 C33.7728074,59.9262787 33.5717865,59.8799438 33.6181903,59.4783122 C33.664594,59.076866 34.0822274,54.5668053 34.9483063,53.3776646 C34.9638979,53.3467128 35.8455684,51.9103287 36.5570302,51.3389258 C36.5260325,51.3079741 37.8563341,49.5781969 37.7789327,48.8522206 C37.7945244,49.0066087 38.1657541,45.0218012 37.5315081,44.2650584 C36.8972622,43.5083157 36.0465893,43.5390821 35.7681671,43.5390821 C35.4897448,43.5390821 33.695406,43.6163688 33.695406,43.6163688 C33.695406,43.6163688 29.9212993,44.3113934 28.8540139,44.4040633 C27.7867285,44.4967333 27.4000928,44.5121165 27.0906729,44.4967333 C26.7812529,44.4813501 26.3946172,44.4350151 26.3946172,44.4350151 C26.3946172,44.4350151 26.0851972,44.8674131 25.8067749,45.1917579 C25.5283527,45.5161027 25.1417169,45.7631607 25.0025058,46.0721223 C24.8632947,46.3810839 24.8014849,46.6435252 24.8014849,46.6435252 C24.8014849,46.6435252 24.8942923,48.4042541 25.3273318,48.9758423 C25.7603712,49.5472452 25.8531787,50.1342166 26.0543852,50.5202796 C26.255406,50.9063425 26.1161949,51.0762992 26.4874246,51.2462559 C26.8586543,51.4160272 27.4154988,51.9257119 27.570116,52.1729553 C27.7249188,52.4200134 28.3125754,52.976033 28.3125754,52.976033 C28.3125754,52.976033 28.6683991,53.115038 28.7612065,53.2540429 C28.8540139,53.3930478 29.1014385,53.7637276 29.1014385,53.8563975 C29.1014385,53.9490674 29.4726682,54.937485 29.2562413,55.3391166 C29.0396288,55.7407481 29.0860325,55.6634614 28.7922042,55.8641845 C28.4981903,56.0650929 27.8021346,56.4357727 27.6011137,56.4357727 C27.4000928,56.4357727 27.5393039,56.265816 27.0288631,56.3894377 C26.5184223,56.5128741 26.1471926,56.7291657 25.7295592,56.698214 C25.3119258,56.6674475 24.0744316,56.6828307 23.3319722,56.5128741 C22.5895128,56.3431027 21.9244548,56.219481 21.7232483,55.926088 C21.5222274,55.6325096 20.0991183,53.7946793 19.8670998,52.2810085 C19.6350812,50.7673376 19.3258469,50.7673376 19.2794432,50.5975663 L19.2330394,50.4276096 C19.2330394,50.4276096 19.140232,50.3503229 18.707007,50.7365712 C18.2739675,51.1226342 17.7635267,51.2925909 17.2530858,51.6169357 C16.742645,51.9412805 16.092993,52.4046302 15.8609745,52.6207365 C15.6289559,52.8370281 15.319536,53.2230911 15.3041299,53.362096 C15.2887239,53.5011009 14.3142459,54.6131402 14.2522506,55.2001117 C14.1904408,55.7870831 14.2678422,55.7715145 14.3606497,55.9878062 C14.4534571,56.2040978 14.5926682,56.8372189 14.654478,56.9454574 C14.7162877,57.0535105 14.8554988,58.1965016 14.7782831,58.2428366 C14.7008817,58.2891715 14.7162877,58.3662729 13.8966125,58.3355065 C13.0767517,58.3045547 12.2878886,58.1655498 11.8702552,57.9648267 C11.4526218,57.7639183 8.6838051,56.1268111 8.6838051,56.1268111 C8.6838051,56.1268111 6.95146172,54.7830969 6.95146172,54.1961255 C6.95146172,53.6093394 7.12167053,53.4703345 7.30728538,53.2230911 C7.49290023,52.976033 8.32816705,50.8446244 8.94682135,50.3039879 C9.56547564,49.7635368 10.6483527,48.4505891 10.8339675,48.1262443 C11.0195824,47.8018995 12.5353132,47.1224434 14.2678422,46.2111272 C14.2986543,46.2111272 16.9900696,44.1877717 17.1138747,42.8903925 C17.0984687,42.905961 17.5933179,41.6703 17.2220882,41.2996203 C16.8508585,40.9289405 15.4587471,38.565857 15.1803248,37.8554492 C14.9019026,37.1448561 14.6234803,35.8630454 14.6234803,35.8630454 C14.6234803,35.8630454 13.339768,30.0865572 13.339768,29.4224844 C13.339768,28.7582262 13.0767517,27.8315268 12.8447332,27.4917988 C12.6127146,27.1520708 11.4990255,26.4724294 10.617355,26.2870895 C9.73568445,26.1017497 9.17883991,25.9010266 8.74580046,25.7156867 C8.31257541,25.5303468 6.62663573,24.8507054 6.33280742,24.5573124 C6.0387935,24.263734 3.42477958,22.5802918 2.77512761,19.9855334 C2.77512761,20.0009167 2.20287703,17.1281484 2.24928074,16.4486924 C2.29568445,15.7690511 2.17187935,14.7806334 2.14088167,14.4407201 C2.11006961,14.1009921 2.29568445,13.4369193 1.76965197,12.7109429 C1.2438051,11.9849666 0.934385151,11.6915736 0.640556845,11.5216169 C0.346728538,11.3518456 0.191925754,11.3672288 0.176519722,11.3055106 C0.161113689,11.2436071 -0.0709048724,11.1509371 0.0219025522,10.8729273 C0.114709977,10.5949175 0.501345708,10.2551895 0.640556845,10.2551895 L0.779767981,10.2551895 Z" id="Fill-1" fill="#075F89" fill-rule="nonzero" mask="url(#mask-2)"></path>
            </g>
            <path d="M92.506,61 L88.762,61 C88.3419979,61 87.9970014,60.8950011 87.727,60.685 C87.4569987,60.474999 87.2620006,60.2140016 87.142,59.902 L85.198,54.592 L74.416,54.592 L72.472,59.902 C72.3759995,60.1780014 72.1870014,60.4299989 71.905,60.658 C71.6229986,60.8860011 71.278002,61 70.87,61 L67.108,61 L77.332,34.972 L82.282,34.972 L92.506,61 Z M75.658,51.172 L83.956,51.172 L80.788,42.514 C80.6439993,42.1299981 80.4850009,41.6770026 80.311,41.155 C80.1369991,40.6329974 79.9660008,40.0660031 79.798,39.454 C79.6299992,40.0660031 79.4650008,40.6359974 79.303,41.164 C79.1409992,41.6920026 78.9820008,42.153998 78.826,42.55 L75.658,51.172 Z M99.67,34.252 L99.67,61 L95.224,61 L95.224,34.252 L99.67,34.252 Z M112.576,42.244 C113.956007,42.244 115.206994,42.4659978 116.329,42.91 C117.451006,43.3540022 118.407996,43.9839959 119.2,44.8 C119.992004,45.6160041 120.603998,46.6119941 121.036,47.788 C121.468002,48.9640059 121.684,50.2779927 121.684,51.73 C121.684,53.1940073 121.468002,54.5139941 121.036,55.69 C120.603998,56.8660059 119.992004,57.8679959 119.2,58.696 C118.407996,59.5240041 117.451006,60.1599978 116.329,60.604 C115.206994,61.0480022 113.956007,61.27 112.576,61.27 C111.195993,61.27 109.942006,61.0480022 108.814,60.604 C107.685994,60.1599978 106.723004,59.5240041 105.925,58.696 C105.126996,57.8679959 104.509002,56.8660059 104.071,55.69 C103.632998,54.5139941 103.414,53.1940073 103.414,51.73 C103.414,50.2779927 103.632998,48.9640059 104.071,47.788 C104.509002,46.6119941 105.126996,45.6160041 105.925,44.8 C106.723004,43.9839959 107.685994,43.3540022 108.814,42.91 C109.942006,42.4659978 111.195993,42.244 112.576,42.244 Z M112.576,57.85 C114.112008,57.85 115.248996,57.3340052 115.987,56.302 C116.725004,55.2699948 117.094,53.75801 117.094,51.766 C117.094,49.77399 116.725004,48.2560052 115.987,47.212 C115.248996,46.1679948 114.112008,45.646 112.576,45.646 C111.015992,45.646 109.864004,46.1709948 109.12,47.221 C108.375996,48.2710053 108.004,49.7859901 108.004,51.766 C108.004,53.7460099 108.375996,55.2549948 109.12,56.293 C109.864004,57.3310052 111.015992,57.85 112.576,57.85 Z M125.158,61 L125.158,42.532 L127.876,42.532 C128.452003,42.532 128.829999,42.8019973 129.01,43.342 L129.316,44.8 C129.688002,44.4159981 130.080998,44.0680016 130.495,43.756 C130.909002,43.4439984 131.346998,43.1740011 131.809,42.946 C132.271002,42.7179989 132.765997,42.5440006 133.294,42.424 C133.822003,42.3039994 134.397997,42.244 135.022,42.244 C136.030005,42.244 136.923996,42.4149983 137.704,42.757 C138.484004,43.0990017 139.134997,43.5789969 139.657,44.197 C140.179003,44.8150031 140.574999,45.5529957 140.845,46.411 C141.115001,47.2690043 141.25,48.2139948 141.25,49.246 L141.25,61 L136.804,61 L136.804,49.246 C136.804,48.1179944 136.543003,47.2450031 136.021,46.627 C135.498997,46.0089969 134.716005,45.7 133.672,45.7 C132.903996,45.7 132.184003,45.8739983 131.512,46.222 C130.839997,46.5700017 130.204003,47.043997 129.604,47.644 L129.604,61 L125.158,61 Z M158.98,44.368 C158.98,44.6800016 158.923001,44.9829985 158.809,45.277 C158.694999,45.5710015 158.560001,45.819999 158.404,46.024 L149.62,57.58 L158.728,57.58 L158.728,61 L144.454,61 L144.454,59.146 C144.454,58.941999 144.502,58.6990014 144.598,58.417 C144.694,58.1349986 144.843999,57.8680013 145.048,57.616 L153.904,45.934 L144.976,45.934 L144.976,42.532 L158.98,42.532 L158.98,44.368 Z M170.41,42.244 C171.790007,42.244 173.040994,42.4659978 174.163,42.91 C175.285006,43.3540022 176.241996,43.9839959 177.034,44.8 C177.826004,45.6160041 178.437998,46.6119941 178.87,47.788 C179.302002,48.9640059 179.518,50.2779927 179.518,51.73 C179.518,53.1940073 179.302002,54.5139941 178.87,55.69 C178.437998,56.8660059 177.826004,57.8679959 177.034,58.696 C176.241996,59.5240041 175.285006,60.1599978 174.163,60.604 C173.040994,61.0480022 171.790007,61.27 170.41,61.27 C169.029993,61.27 167.776006,61.0480022 166.648,60.604 C165.519994,60.1599978 164.557004,59.5240041 163.759,58.696 C162.960996,57.8679959 162.343002,56.8660059 161.905,55.69 C161.466998,54.5139941 161.248,53.1940073 161.248,51.73 C161.248,50.2779927 161.466998,48.9640059 161.905,47.788 C162.343002,46.6119941 162.960996,45.6160041 163.759,44.8 C164.557004,43.9839959 165.519994,43.3540022 166.648,42.91 C167.776006,42.4659978 169.029993,42.244 170.41,42.244 Z M170.41,57.85 C171.946008,57.85 173.082996,57.3340052 173.821,56.302 C174.559004,55.2699948 174.928,53.75801 174.928,51.766 C174.928,49.77399 174.559004,48.2560052 173.821,47.212 C173.082996,46.1679948 171.946008,45.646 170.41,45.646 C168.849992,45.646 167.698004,46.1709948 166.954,47.221 C166.209996,48.2710053 165.838,49.7859901 165.838,51.766 C165.838,53.7460099 166.209996,55.2549948 166.954,56.293 C167.698004,57.3310052 168.849992,57.85 170.41,57.85 Z M208.084,54.862 C208.348001,54.862 208.575999,54.963999 208.768,55.168 L210.676,57.238 C209.619995,58.5460065 208.321008,59.5479965 206.779,60.244 C205.236992,60.9400035 203.386011,61.288 201.226,61.288 C199.29399,61.288 197.557008,60.9580033 196.015,60.298 C194.472992,59.6379967 193.156005,58.7200059 192.064,57.544 C190.971995,56.3679941 190.135003,54.9640082 189.553,53.332 C188.970997,51.6999918 188.68,49.9180097 188.68,47.986 C188.68,46.0299902 189.003997,44.2390081 189.652,42.613 C190.300003,40.9869919 191.211994,39.5860059 192.388,38.41 C193.564006,37.2339941 194.970992,36.3190033 196.609,35.665 C198.247008,35.0109967 200.05599,34.684 202.036,34.684 C203.96801,34.684 205.656993,34.9929969 207.103,35.611 C208.549007,36.2290031 209.787995,37.0479949 210.82,38.068 L209.2,40.318 C209.104,40.4620007 208.981001,40.5879995 208.831,40.696 C208.680999,40.8040005 208.474001,40.858 208.21,40.858 C207.933999,40.858 207.652001,40.7500011 207.364,40.534 C207.075999,40.3179989 206.710002,40.0840013 206.266,39.832 C205.821998,39.5799987 205.261003,39.3460011 204.583,39.13 C203.904997,38.9139989 203.044005,38.806 202,38.806 C200.775994,38.806 199.651005,39.0189979 198.625,39.445 C197.598995,39.8710021 196.717004,40.479996 195.979,41.272 C195.240996,42.064004 194.665002,43.0269943 194.251,44.161 C193.836998,45.2950057 193.63,46.5699929 193.63,47.986 C193.63,49.4500073 193.836998,50.7519943 194.251,51.892 C194.665002,53.0320057 195.225996,53.9919961 195.934,54.772 C196.642004,55.5520039 197.475995,56.1489979 198.436,56.563 C199.396005,56.9770021 200.427994,57.184 201.532,57.184 C202.192003,57.184 202.788997,57.1480004 203.323,57.076 C203.857003,57.0039996 204.348998,56.8900008 204.799,56.734 C205.249002,56.5779992 205.674998,56.3770012 206.077,56.131 C206.479002,55.8849988 206.877998,55.5820018 207.274,55.222 C207.394001,55.1139995 207.519999,55.0270003 207.652,54.961 C207.784001,54.8949997 207.927999,54.862 208.084,54.862 Z M218.812,34.252 L218.812,61 L214.366,61 L214.366,34.252 L218.812,34.252 Z M231.466,42.244 C232.630006,42.244 233.700995,42.4299981 234.679,42.802 C235.657005,43.1740019 236.499996,43.7169964 237.208,44.431 C237.916004,45.1450036 238.467998,46.0209948 238.864,47.059 C239.260002,48.0970052 239.458,49.2819933 239.458,50.614 C239.458,50.9500017 239.443,51.2289989 239.413,51.451 C239.383,51.6730011 239.329,51.8469994 239.251,51.973 C239.173,52.0990006 239.068001,52.1889997 238.936,52.243 C238.803999,52.2970003 238.636001,52.324 238.432,52.324 L227.02,52.324 C227.152001,54.2200095 227.661996,55.6119956 228.55,56.5 C229.438004,57.3880044 230.613993,57.832 232.078,57.832 C232.798004,57.832 233.418997,57.7480008 233.941,57.58 C234.463003,57.4119992 234.918998,57.226001 235.309,57.022 C235.699002,56.817999 236.040999,56.6320008 236.335,56.464 C236.629001,56.2959992 236.913999,56.212 237.19,56.212 C237.370001,56.212 237.525999,56.2479996 237.658,56.32 C237.790001,56.3920004 237.904,56.4939993 238,56.626 L239.296,58.246 C238.803998,58.8220029 238.252003,59.3049981 237.64,59.695 C237.027997,60.085002 236.389003,60.3969988 235.723,60.631 C235.056997,60.8650012 234.379003,61.0299995 233.689,61.126 C232.998997,61.2220005 232.330003,61.27 231.682,61.27 C230.397994,61.27 229.204006,61.0570021 228.1,60.631 C226.995994,60.2049979 226.036004,59.5750042 225.22,58.741 C224.403996,57.9069958 223.762002,56.8750062 223.294,55.645 C222.825998,54.4149939 222.592,52.9900081 222.592,51.37 C222.592,50.1099937 222.795998,48.9250056 223.204,47.815 C223.612002,46.7049945 224.196996,45.7390041 224.959,44.917 C225.721004,44.0949959 226.650995,43.4440024 227.749,42.964 C228.847005,42.4839976 230.085993,42.244 231.466,42.244 Z M231.556,45.43 C230.259994,45.43 229.246004,45.7959963 228.514,46.528 C227.781996,47.2600037 227.314001,48.2979933 227.11,49.642 L235.462,49.642 C235.462,49.0659971 235.384001,48.5230026 235.228,48.013 C235.071999,47.5029975 234.832002,47.0560019 234.508,46.672 C234.183998,46.2879981 233.776002,45.9850011 233.284,45.763 C232.791998,45.5409989 232.216003,45.43 231.556,45.43 Z M243.076,61 L243.076,42.532 L245.794,42.532 C246.370003,42.532 246.747999,42.8019973 246.928,43.342 L247.216,44.71 C247.540002,44.3499982 247.878998,44.0200015 248.233,43.72 C248.587002,43.4199985 248.964998,43.1620011 249.367,42.946 C249.769002,42.7299989 250.200998,42.5590006 250.663,42.433 C251.125002,42.3069994 251.631997,42.244 252.184,42.244 C253.348006,42.244 254.304996,42.5589969 255.055,43.189 C255.805004,43.8190032 256.365998,44.6559948 256.738,45.7 C257.026001,45.0879969 257.385998,44.5630022 257.818,44.125 C258.250002,43.6869978 258.723997,43.3300014 259.24,43.054 C259.756003,42.7779986 260.304997,42.5740007 260.887,42.442 C261.469003,42.3099993 262.053997,42.244 262.642,42.244 C263.662005,42.244 264.567996,42.3999984 265.36,42.712 C266.152004,43.0240016 266.817997,43.479997 267.358,44.08 C267.898003,44.680003 268.308999,45.4119957 268.591,46.276 C268.873001,47.1400043 269.014,48.1299944 269.014,49.246 L269.014,61 L264.568,61 L264.568,49.246 C264.568,48.0699941 264.310003,47.185003 263.794,46.591 C263.277997,45.996997 262.522005,45.7 261.526,45.7 C261.069998,45.7 260.647002,45.7779992 260.257,45.934 C259.866998,46.0900008 259.525001,46.3149985 259.231,46.609 C258.936999,46.9030015 258.706001,47.2719978 258.538,47.716 C258.369999,48.1600022 258.286,48.6699971 258.286,49.246 L258.286,61 L253.822,61 L253.822,49.246 C253.822,48.0099938 253.573002,47.1100028 253.075,46.546 C252.576998,45.9819972 251.842005,45.7 250.87,45.7 C250.233997,45.7 249.637003,45.8589984 249.079,46.177 C248.520997,46.4950016 248.002002,46.9299972 247.522,47.482 L247.522,61 L243.076,61 Z M281.272,42.244 C282.652007,42.244 283.902994,42.4659978 285.025,42.91 C286.147006,43.3540022 287.103996,43.9839959 287.896,44.8 C288.688004,45.6160041 289.299998,46.6119941 289.732,47.788 C290.164002,48.9640059 290.38,50.2779927 290.38,51.73 C290.38,53.1940073 290.164002,54.5139941 289.732,55.69 C289.299998,56.8660059 288.688004,57.8679959 287.896,58.696 C287.103996,59.5240041 286.147006,60.1599978 285.025,60.604 C283.902994,61.0480022 282.652007,61.27 281.272,61.27 C279.891993,61.27 278.638006,61.0480022 277.51,60.604 C276.381994,60.1599978 275.419004,59.5240041 274.621,58.696 C273.822996,57.8679959 273.205002,56.8660059 272.767,55.69 C272.328998,54.5139941 272.11,53.1940073 272.11,51.73 C272.11,50.2779927 272.328998,48.9640059 272.767,47.788 C273.205002,46.6119941 273.822996,45.6160041 274.621,44.8 C275.419004,43.9839959 276.381994,43.3540022 277.51,42.91 C278.638006,42.4659978 279.891993,42.244 281.272,42.244 Z M281.272,57.85 C282.808008,57.85 283.944996,57.3340052 284.683,56.302 C285.421004,55.2699948 285.79,53.75801 285.79,51.766 C285.79,49.77399 285.421004,48.2560052 284.683,47.212 C283.944996,46.1679948 282.808008,45.646 281.272,45.646 C279.711992,45.646 278.560004,46.1709948 277.816,47.221 C277.071996,48.2710053 276.7,49.7859901 276.7,51.766 C276.7,53.7460099 277.071996,55.2549948 277.816,56.293 C278.560004,57.3310052 279.711992,57.85 281.272,57.85 Z M293.854,61 L293.854,42.532 L296.572,42.532 C297.148003,42.532 297.525999,42.8019973 297.706,43.342 L298.012,44.8 C298.384002,44.4159981 298.776998,44.0680016 299.191,43.756 C299.605002,43.4439984 300.042998,43.1740011 300.505,42.946 C300.967002,42.7179989 301.461997,42.5440006 301.99,42.424 C302.518003,42.3039994 303.093997,42.244 303.718,42.244 C304.726005,42.244 305.619996,42.4149983 306.4,42.757 C307.180004,43.0990017 307.830997,43.5789969 308.353,44.197 C308.875003,44.8150031 309.270999,45.5529957 309.541,46.411 C309.811001,47.2690043 309.946,48.2139948 309.946,49.246 L309.946,61 L305.5,61 L305.5,49.246 C305.5,48.1179944 305.239003,47.2450031 304.717,46.627 C304.194997,46.0089969 303.412005,45.7 302.368,45.7 C301.599996,45.7 300.880003,45.8739983 300.208,46.222 C299.535997,46.5700017 298.900003,47.043997 298.3,47.644 L298.3,61 L293.854,61 Z M325.282,46.132 C325.161999,46.324001 325.036001,46.4589996 324.904,46.537 C324.771999,46.6150004 324.604001,46.654 324.4,46.654 C324.183999,46.654 323.953001,46.5940006 323.707,46.474 C323.460999,46.3539994 323.176002,46.2190008 322.852,46.069 C322.527998,45.9189993 322.159002,45.7840006 321.745,45.664 C321.330998,45.5439994 320.842003,45.484 320.278,45.484 C319.401996,45.484 318.712003,45.6699981 318.208,46.042 C317.703997,46.4140019 317.452,46.899997 317.452,47.5 C317.452,47.896002 317.580999,48.2289987 317.839,48.499 C318.097001,48.7690014 318.438998,49.005999 318.865,49.21 C319.291002,49.414001 319.773997,49.5969992 320.314,49.759 C320.854003,49.9210008 321.405997,50.097999 321.97,50.29 C322.534003,50.482001 323.085997,50.7009988 323.626,50.947 C324.166003,51.1930012 324.648998,51.5049981 325.075,51.883 C325.501002,52.2610019 325.842999,52.7139974 326.101,53.242 C326.359001,53.7700026 326.488,54.4059963 326.488,55.15 C326.488,56.0380044 326.326002,56.8569963 326.002,57.607 C325.677998,58.3570038 325.204003,59.0049973 324.58,59.551 C323.955997,60.0970027 323.185005,60.5229985 322.267,60.829 C321.348995,61.1350015 320.296006,61.288 319.108,61.288 C318.471997,61.288 317.851003,61.2310006 317.245,61.117 C316.638997,61.0029994 316.057003,60.844001 315.499,60.64 C314.940997,60.435999 314.425002,60.1960014 313.951,59.92 C313.476998,59.6439986 313.060002,59.3440016 312.7,59.02 L313.726,57.328 C313.858001,57.123999 314.013999,56.9680005 314.194,56.86 C314.374001,56.7519995 314.601999,56.698 314.878,56.698 C315.154001,56.698 315.414999,56.7759992 315.661,56.932 C315.907001,57.0880008 316.191998,57.2559991 316.516,57.436 C316.840002,57.6160009 317.220998,57.7839992 317.659,57.94 C318.097002,58.0960008 318.651997,58.174 319.324,58.174 C319.852003,58.174 320.304998,58.1110006 320.683,57.985 C321.061002,57.8589994 321.372999,57.694001 321.619,57.49 C321.865001,57.285999 322.044999,57.0490014 322.159,56.779 C322.273001,56.5089987 322.33,56.2300014 322.33,55.942 C322.33,55.5099978 322.201001,55.1560014 321.943,54.88 C321.684999,54.6039986 321.343002,54.364001 320.917,54.16 C320.490998,53.955999 320.005003,53.7730008 319.459,53.611 C318.912997,53.4489992 318.355003,53.272001 317.785,53.08 C317.214997,52.887999 316.657003,52.6630013 316.111,52.405 C315.564997,52.1469987 315.079002,51.820002 314.653,51.424 C314.226998,51.027998 313.885001,50.5420029 313.627,49.966 C313.368999,49.3899971 313.24,48.6940041 313.24,47.878 C313.24,47.1219962 313.389998,46.4020034 313.69,45.718 C313.990001,45.0339966 314.430997,44.4370026 315.013,43.927 C315.595003,43.4169975 316.320996,43.0090015 317.191,42.703 C318.061004,42.3969985 319.065994,42.244 320.206,42.244 C321.478006,42.244 322.635995,42.4539979 323.68,42.874 C324.724005,43.2940021 325.593997,43.8459966 326.29,44.53 L325.282,46.132 Z" id="Alonzo-Clemons" fill="#333333"></path>
        </g>
    </g>
</svg>